<svg xmlns="http://www.w3.org/2000/svg" xmlns:xlink="http://www.w3.org/1999/xlink" width="180" height="180" viewBox="0 0 180 180"><defs><clipPath id="a"><rect width="224.997" height="180" fill="none"/></clipPath><filter id="b" x="-14.82" y="85" width="209.82" height="52.028" filterUnits="userSpaceOnUse"><feOffset dy="10" input="SourceAlpha"/><feGaussianBlur stdDeviation="5" result="c"/><feFlood flood-color="#303534" flood-opacity="0.031"/><feComposite operator="in" in2="c"/><feComposite in="SourceGraphic"/></filter><clipPath id="e"><rect width="180" height="180"/></clipPath></defs><g id="d" clip-path="url(#e)"><rect width="180" height="180" fill="#fffefd"/><g transform="translate(-44.997)" clip-path="url(#a)"><g transform="translate(166.062 -80.938)"><path d="M0,0H1V50H0Z" transform="translate(-98.622 77.668) rotate(45)" fill="#d9e4dd"/></g><g transform="translate(198.062 -80.938)"><path d="M0,0H1V50H0Z" transform="translate(-98.622 77.668) rotate(45)" fill="#d9e4dd"/></g><g transform="translate(230.062 -80.938)"><path d="M0,0H1V50H0Z" transform="translate(-98.622 77.668) rotate(45)" fill="#d9e4dd"/></g><g transform="translate(262.062 -80.938)"><path d="M0,0H1V50H0Z" transform="translate(-98.622 77.668) rotate(45)" fill="#d9e4dd"/></g><g transform="translate(294.062 -80.938)"><path d="M0,0H1V50H0Z" transform="translate(-98.622 77.668) rotate(45)" fill="#d9e4dd"/></g><g transform="translate(326.062 -80.938)"><path d="M0,0H1V50H0Z" transform="translate(-98.622 77.668) rotate(45)" fill="#d9e4dd"/></g><g transform="translate(358.062 -80.938)"><path d="M0,0H1V50H0Z" transform="translate(-98.622 77.668) rotate(45)" fill="#d9e4dd"/></g><g transform="translate(390.062 -80.938)"><path d="M0,0H1V50H0Z" transform="translate(-98.622 77.668) rotate(45)" fill="#d9e4dd"/></g><g transform="translate(166.062 -48.938)"><path d="M0,0H1V50H0Z" transform="translate(-98.622 77.668) rotate(45)" fill="#d9e4dd"/></g><g transform="translate(198.062 -48.938)"><path d="M0,0H1V50H0Z" transform="translate(-98.622 77.668) rotate(45)" fill="#d9e4dd"/></g><g transform="translate(230.062 -48.938)"><path d="M0,0H1V50H0Z" transform="translate(-98.622 77.668) rotate(45)" fill="#d9e4dd"/></g><g transform="translate(262.062 -48.938)"><path d="M0,0H1V50H0Z" transform="translate(-98.622 77.668) rotate(45)" fill="#d9e4dd"/></g><g transform="translate(294.062 -48.938)"><path d="M0,0H1V50H0Z" transform="translate(-98.622 77.668) rotate(45)" fill="#d9e4dd"/></g><g transform="translate(326.062 -48.938)"><path d="M0,0H1V50H0Z" transform="translate(-98.622 77.668) rotate(45)" fill="#d9e4dd"/></g><g transform="translate(358.062 -48.938)"><path d="M0,0H1V50H0Z" transform="translate(-98.622 77.668) rotate(45)" fill="#d9e4dd"/></g><g transform="translate(390.062 -48.938)"><path d="M0,0H1V50H0Z" transform="translate(-98.622 77.668) rotate(45)" fill="#d9e4dd"/></g><g transform="translate(166.062 -16.938)"><path d="M0,0H1V50H0Z" transform="translate(-98.622 77.668) rotate(45)" fill="#d9e4dd"/></g><g transform="translate(198.062 -16.938)"><path d="M0,0H1V50H0Z" transform="translate(-98.622 77.668) rotate(45)" fill="#d9e4dd"/></g><g transform="translate(230.062 -16.938)"><path d="M0,0H1V50H0Z" transform="translate(-98.622 77.668) rotate(45)" fill="#d9e4dd"/></g><g transform="translate(262.062 -16.938)"><path d="M0,0H1V50H0Z" transform="translate(-98.622 77.668) rotate(45)" fill="#d9e4dd"/></g><g transform="translate(294.062 -16.938)"><path d="M0,0H1V50H0Z" transform="translate(-98.622 77.668) rotate(45)" fill="#d9e4dd"/></g><g transform="translate(326.062 -16.938)"><path d="M0,0H1V50H0Z" transform="translate(-98.622 77.668) rotate(45)" fill="#d9e4dd"/></g><g transform="translate(358.062 -16.938)"><path d="M0,0H1V50H0Z" transform="translate(-98.622 77.668) rotate(45)" fill="#d9e4dd"/></g><g transform="translate(390.062 -16.938)"><path d="M0,0H1V50H0Z" transform="translate(-98.622 77.668) rotate(45)" fill="#d9e4dd"/></g><g transform="translate(166.062 15.062)"><path d="M0,0H1V50H0Z" transform="translate(-98.622 77.668) rotate(45)" fill="#d9e4dd"/></g><g transform="translate(198.062 15.062)"><path d="M0,0H1V50H0Z" transform="translate(-98.622 77.668) rotate(45)" fill="#d9e4dd"/></g><g transform="translate(230.062 15.062)"><path d="M0,0H1V50H0Z" transform="translate(-98.622 77.668) rotate(45)" fill="#d9e4dd"/></g><g transform="translate(262.062 15.062)"><path d="M0,0H1V50H0Z" transform="translate(-98.622 77.668) rotate(45)" fill="#d9e4dd"/></g><g transform="translate(294.062 15.062)"><path d="M0,0H1V50H0Z" transform="translate(-98.622 77.668) rotate(45)" fill="#d9e4dd"/></g><g transform="translate(326.062 15.062)"><path d="M0,0H1V50H0Z" transform="translate(-98.622 77.668) rotate(45)" fill="#d9e4dd"/></g><g transform="translate(358.062 15.062)"><path d="M0,0H1V50H0Z" transform="translate(-98.622 77.668) rotate(45)" fill="#d9e4dd"/></g><g transform="translate(390.062 15.062)"><path d="M0,0H1V50H0Z" transform="translate(-98.622 77.668) rotate(45)" fill="#d9e4dd"/></g><g transform="translate(166.062 47.062)"><path d="M0,0H1V50H0Z" transform="translate(-98.622 77.668) rotate(45)" fill="#d9e4dd"/></g><g transform="translate(198.062 47.062)"><path d="M0,0H1V50H0Z" transform="translate(-98.622 77.668) rotate(45)" fill="#d9e4dd"/></g><g transform="translate(230.062 47.062)"><path d="M0,0H1V50H0Z" transform="translate(-98.622 77.668) rotate(45)" fill="#d9e4dd"/></g><g transform="translate(262.062 47.062)"><path d="M0,0H1V50H0Z" transform="translate(-98.622 77.668) rotate(45)" fill="#d9e4dd"/></g><g transform="translate(294.062 47.062)"><path d="M0,0H1V50H0Z" transform="translate(-98.622 77.668) rotate(45)" fill="#d9e4dd"/></g><g transform="translate(326.062 47.062)"><path d="M0,0H1V50H0Z" transform="translate(-98.622 77.668) rotate(45)" fill="#d9e4dd"/></g><g transform="translate(358.062 47.062)"><path d="M0,0H1V50H0Z" transform="translate(-98.622 77.668) rotate(45)" fill="#d9e4dd"/></g><g transform="translate(390.062 47.062)"><path d="M0,0H1V50H0Z" transform="translate(-98.622 77.668) rotate(45)" fill="#d9e4dd"/></g><g transform="translate(166.062 79.062)"><path d="M0,0H1V50H0Z" transform="translate(-98.622 77.668) rotate(45)" fill="#d9e4dd"/></g><g transform="translate(198.062 79.062)"><path d="M0,0H1V50H0Z" transform="translate(-98.622 77.668) rotate(45)" fill="#d9e4dd"/></g><g transform="translate(230.062 79.062)"><path d="M0,0H1V50H0Z" transform="translate(-98.622 77.668) rotate(45)" fill="#d9e4dd"/></g><g transform="translate(262.062 79.062)"><path d="M0,0H1V50H0Z" transform="translate(-98.622 77.668) rotate(45)" fill="#d9e4dd"/></g><g transform="translate(294.062 79.062)"><path d="M0,0H1V50H0Z" transform="translate(-98.622 77.668) rotate(45)" fill="#d9e4dd"/></g><g transform="translate(326.062 79.062)"><path d="M0,0H1V50H0Z" transform="translate(-98.622 77.668) rotate(45)" fill="#d9e4dd"/></g><g transform="translate(358.062 79.062)"><path d="M0,0H1V50H0Z" transform="translate(-98.622 77.668) rotate(45)" fill="#d9e4dd"/></g><g transform="translate(390.062 79.062)"><path d="M0,0H1V50H0Z" transform="translate(-98.622 77.668) rotate(45)" fill="#d9e4dd"/></g></g><g transform="translate(0.429 90)"><rect width="180" height="4.615" transform="translate(-0.429)" fill="#d9e4dd"/><g transform="matrix(1, 0, 0, 1, -0.43, -90)" filter="url(#b)"><path d="M179.82,11.014l-7.493,1.833c-7.493,1.867-22.478,5.481-37.463,5.051S104.9,12.821,89.91,11.014s-29.97-.947-44.955,1.377-29.97,5.937-37.463,7.8L0,22.028V0H179.82Z" transform="translate(0.18 90)" fill="#d9e4dd"/></g></g><rect width="180" height="90" fill="#d9e4dd"/><text transform="translate(66 111)" fill="#303534" font-size="96" font-family="ZenMaruGothic-Bold, Zen Maru Gothic" font-weight="700" letter-spacing="0.2em"><tspan x="0" y="0">y</tspan></text></g></svg>