<svg xmlns="http://www.w3.org/2000/svg" width="22" height="22" viewBox="0 0 22 22"><path d="M23,13.06a1.378,1.378,0,0,0-.827.338L13.6,20.318a1.594,1.594,0,0,0-.6,1.234v9.9a1.6,1.6,0,0,0,1.6,1.609h3.255a1.6,1.6,0,0,0,1.137-.468,1.613,1.613,0,0,0,.472-1.141V29.385a1.6,1.6,0,0,1,1.6-1.609h3.873a1.6,1.6,0,0,1,1.6,1.609v2.066a1.613,1.613,0,0,0,.472,1.141,1.6,1.6,0,0,0,1.137.468H31.4A1.6,1.6,0,0,0,33,31.451v-9.9a1.594,1.594,0,0,0-.6-1.234l-8.573-6.9A1.423,1.423,0,0,0,23,13.06Z" transform="translate(-12 -12.06)" fill="none" stroke="#303534" stroke-linecap="round" stroke-linejoin="round" stroke-width="2"/></svg>