<svg xmlns="http://www.w3.org/2000/svg" width="82.077" height="16.416" viewBox="0 0 82.077 16.416"><path d="M2.178,3.582H1.692a1.077,1.077,0,0,1-.756-.315,1.046,1.046,0,0,1-.252-.729q0-.9.612-.81.18.018.342.027t.324.009a1.881,1.881,0,0,0,.729-.108.829.829,0,0,0,.387-.36A6.35,6.35,0,0,0,3.4.612l.234-.63L.7-7.434a1.143,1.143,0,0,1-.054-.9.636.636,0,0,1,.63-.324H1.4a1.161,1.161,0,0,1,1.206.846L4.518-2.448,6.3-7.794a1.181,1.181,0,0,1,1.206-.864.774.774,0,0,1,.72.324,1.054,1.054,0,0,1,0,.9l-3.1,8.64A4.621,4.621,0,0,1,4.077,2.988,2.659,2.659,0,0,1,2.178,3.582ZM16.614.2a2.968,2.968,0,0,1-2.2-.864,3.489,3.489,0,0,1-.855-2.556V-7.6q0-1.062,1.008-1.062A.923.923,0,0,1,15.588-7.6v3.924a2.352,2.352,0,0,0,.423,1.512,1.357,1.357,0,0,0,1.107.522,1.617,1.617,0,0,0,1.26-.54,2.3,2.3,0,0,0,.486-1.584V-7.6A.923.923,0,0,1,19.89-8.658Q20.9-8.658,20.9-7.6v6.534a1.184,1.184,0,0,1-.234.783A.842.842,0,0,1,19.98,0q-.9,0-.936-.468l-.072-.558a3.161,3.161,0,0,1-.936.855A2.641,2.641,0,0,1,16.614.2ZM27.72,0a.923.923,0,0,1-1.026-1.062V-7.6a.939.939,0,0,1,1.062-1.062,1.152,1.152,0,0,1,.63.171.7.7,0,0,1,.27.639v.414a2.466,2.466,0,0,1,1.017-1.044,2.912,2.912,0,0,1,1.467-.4,1.157,1.157,0,0,1,.855.3,1.082,1.082,0,0,1,.3.8.89.89,0,0,1-.234.684.651.651,0,0,1-.54.18q-.144-.018-.306-.027t-.36-.009a2.131,2.131,0,0,0-1.5.576,2.1,2.1,0,0,0-.621,1.62v3.69Q28.728,0,27.72,0ZM38.466,0q-1.008,0-1.008-1.062V-7.6q0-1.062,1.008-1.062T39.474-7.6v6.534Q39.474,0,38.466,0Zm-.018-10.08a1.229,1.229,0,0,1-.9-.378,1.229,1.229,0,0,1-.378-.9,1.229,1.229,0,0,1,.378-.9,1.229,1.229,0,0,1,.9-.378,1.229,1.229,0,0,1,.9.378,1.229,1.229,0,0,1,.378.9,1.229,1.229,0,0,1-.378.9A1.229,1.229,0,0,1,38.448-10.08ZM46.548,0a.923.923,0,0,1-1.026-1.062v-10.71a.923.923,0,0,1,1.026-1.062q1.008,0,1.008,1.062v10.71Q47.556,0,46.548,0Zm10.53.2a4.065,4.065,0,0,1-2.133-.567,4.046,4.046,0,0,1-1.494-1.584A4.947,4.947,0,0,1,52.9-4.338a4.947,4.947,0,0,1,.549-2.385,4.046,4.046,0,0,1,1.494-1.584,4.065,4.065,0,0,1,2.133-.567,4.133,4.133,0,0,1,2.169.567,3.982,3.982,0,0,1,1.485,1.584,5.014,5.014,0,0,1,.54,2.385,5.014,5.014,0,0,1-.54,2.385A3.982,3.982,0,0,1,59.247-.369,4.133,4.133,0,0,1,57.078.2Zm0-1.836a1.958,1.958,0,0,0,1.557-.7,2.977,2.977,0,0,0,.6-2,2.977,2.977,0,0,0-.6-2,1.958,1.958,0,0,0-1.557-.7,1.912,1.912,0,0,0-1.53.7,3.008,3.008,0,0,0-.594,2,3.008,3.008,0,0,0,.594,2A1.912,1.912,0,0,0,57.078-1.638Zm13.086,5.22a4.354,4.354,0,0,1-3.222-1.188.884.884,0,0,1-.306-.774A.958.958,0,0,1,67.1.99a.863.863,0,0,1,.72-.18,2.181,2.181,0,0,1,.72.4,2.4,2.4,0,0,0,1.62.54A1.86,1.86,0,0,0,71.73,1.1a3.387,3.387,0,0,0,.5-2.07v-.486a2.841,2.841,0,0,1-2.142.882,4.223,4.223,0,0,1-2.025-.477,3.384,3.384,0,0,1-1.395-1.4,4.714,4.714,0,0,1-.5-2.277,4.7,4.7,0,0,1,.5-2.286,3.34,3.34,0,0,1,1.395-1.386,4.289,4.289,0,0,1,2.025-.468,3.2,3.2,0,0,1,1.35.3,2.388,2.388,0,0,1,1.062,1v-.306a.7.7,0,0,1,.234-.612,1.125,1.125,0,0,1,.648-.162q.864,0,.864,1.062V-.972a5.1,5.1,0,0,1-1,3.348A3.78,3.78,0,0,1,70.164,3.582Zm.09-5.94A2,2,0,0,0,71.784-3a2.451,2.451,0,0,0,.594-1.737,2.411,2.411,0,0,0-.594-1.737,2.023,2.023,0,0,0-1.53-.621,1.882,1.882,0,0,0-1.485.621,2.535,2.535,0,0,0-.549,1.737A2.577,2.577,0,0,0,68.769-3,1.857,1.857,0,0,0,70.254-2.358ZM81.288.2a1.33,1.33,0,0,1-.963-.4,1.286,1.286,0,0,1-.4-.954,1.307,1.307,0,0,1,.4-.972,1.33,1.33,0,0,1,.963-.4,1.33,1.33,0,0,1,.963.4,1.307,1.307,0,0,1,.4.972,1.286,1.286,0,0,1-.4.954A1.33,1.33,0,0,1,81.288.2Z" transform="translate(-0.579 12.834)" fill="#333"/></svg>