<svg xmlns="http://www.w3.org/2000/svg" width="20" height="20" viewBox="0 0 20 20"><rect width="20" height="20" fill="rgba(0,0,0,0)"/><path d="M18.866,15.874q-3.432-3.4-6.863-6.8a3.773,3.773,0,0,0-1.09-.883,2.218,2.218,0,0,0-2.5.475Q4.555,12.489.695,16.312a2.232,2.232,0,0,0-.622,1.065,2.147,2.147,0,0,0,.6,2.081q2.721,2.7,5.443,5.391a2.177,2.177,0,0,0,1.556.641c1.484.009,2.967,0,4.45.005a2.365,2.365,0,0,0,1.815-.668q2.466-2.435,4.926-4.877a6.578,6.578,0,0,0,.776-.833,2.21,2.21,0,0,0,.233-1.987,3.593,3.593,0,0,0-1-1.256M6.019,18.769c-.279.329-.771.243-1.149.185a6.041,6.041,0,0,1-.907-.9c-.156-.181.044-.37.167-.5q2.539-2.5,5.068-5.017a7.05,7.05,0,0,1,.688-.65c.219-.109.389.126.535.251.311.328.663.619.948.97.147.174-.014.376-.143.5Q8.62,16.187,6.019,18.769m5.326,3.955a7.214,7.214,0,0,1-.869.848,2.414,2.414,0,0,1-.9.011,3.5,3.5,0,0,1-.706-.624c-.165-.159-.423-.4-.211-.628.359-.4.743-.772,1.139-1.131a.362.362,0,0,1,.488.072q.509.488,1,.994a.31.31,0,0,1,.053.459m-.1-4.505c-.964.953-1.931,1.905-2.889,2.865-.269.327-.743.223-1.111.193a5.062,5.062,0,0,1-.918-.867c-.191-.179-.012-.413.134-.547Q7.908,18.435,9.349,17a3.269,3.269,0,0,1,.545-.492c.213-.09.368.124.509.244.321.34.686.64.979,1,.129.163-.021.345-.138.46" transform="translate(0 -6.499)" fill="#2bb24c" fill-rule="evenodd"/></svg>