<svg xmlns="http://www.w3.org/2000/svg" width="20" height="20" viewBox="0 0 20 20"><path d="M6.381,4A2.382,2.382,0,0,0,4,6.381V21.619A2.382,2.382,0,0,0,6.381,24H21.619A2.382,2.382,0,0,0,24,21.619V6.381A2.382,2.382,0,0,0,21.619,4ZM9.209,9.714h4.062a2.132,2.132,0,0,1,2.238,2.015,2.048,2.048,0,0,1-1.586,1.914,2.335,2.335,0,0,1-.409,4.643H9.209Zm7.619,0h1.934v5.714H16.828Zm-5.585,1.881v1.738H12.39a.871.871,0,0,0,.1-1.738Zm0,3.263v1.909h1.429a.955.955,0,1,0,0-1.909ZM17.8,16.381a.952.952,0,1,1-.967.952A.961.961,0,0,1,17.8,16.381Z" transform="translate(-4 -4)" fill="#00a4de"/></svg>