<svg xmlns="http://www.w3.org/2000/svg" width="20" height="16.65" viewBox="0 0 20 16.65"><path d="M17.944,52.231c.013.182.013.364.013.546,0,5.554-4.124,11.954-11.662,11.954A11.379,11.379,0,0,1,0,62.846a8.276,8.276,0,0,0,.99.052,8.083,8.083,0,0,0,5.089-1.8,4.12,4.12,0,0,1-3.833-2.914,5.046,5.046,0,0,0,.774.065A4.235,4.235,0,0,0,4.1,58.111,4.178,4.178,0,0,1,.812,53.987v-.052a4.052,4.052,0,0,0,1.853.533A4.277,4.277,0,0,1,1.4,48.849a11.56,11.56,0,0,0,8.452,4.4,4.857,4.857,0,0,1-.1-.963,4.149,4.149,0,0,1,4.1-4.2,4.043,4.043,0,0,1,2.995,1.327,7.952,7.952,0,0,0,2.6-1.015,4.173,4.173,0,0,1-1.8,2.315,8.06,8.06,0,0,0,2.36-.65A8.935,8.935,0,0,1,17.944,52.231Z" transform="translate(0 -48.082)" fill="#7F9F98"/></svg>